<?xml version="1.0" encoding="UTF-8"?>
<svg version="1.1" xmlns="http://www.w3.org/2000/svg" width="180" height="180">
<path d="M0 0 C2.1065693 0.00315246 4.21171931 -0.02034117 6.31811523 -0.0456543 C17.72948031 -0.10081447 27.95102995 1.82446624 38.37084961 6.56567383 C39.04857422 6.87085938 39.72629883 7.17604492 40.42456055 7.49047852 C61.97643537 17.43356728 76.69142445 33.90786066 86.30834961 55.31567383 C86.9599707 56.76586914 86.9599707 56.76586914 87.62475586 58.24536133 C91.79094485 68.11507842 92.6571822 77.38546687 92.62402344 88.00732422 C92.62087098 90.11389352 92.64436461 92.21904353 92.66967773 94.32543945 C92.7248379 105.73680453 90.7995572 115.95835417 86.05834961 126.37817383 C85.75316406 127.05589844 85.44797852 127.73362305 85.13354492 128.43188477 C75.19045616 149.98375959 58.71616278 164.69874867 37.30834961 174.31567383 C35.8581543 174.96729492 35.8581543 174.96729492 34.37866211 175.63208008 C24.50894502 179.79826907 15.23855657 180.66450642 4.61669922 180.63134766 C2.51012992 180.6281952 0.40497991 180.65168883 -1.70141602 180.67700195 C-13.11278109 180.73216212 -23.33433073 178.80688142 -33.75415039 174.06567383 C-34.431875 173.76048828 -35.10959961 173.45530273 -35.80786133 173.14086914 C-57.35973615 163.19778038 -72.07472523 146.723487 -81.69165039 125.31567383 C-82.12606445 124.34887695 -82.56047852 123.38208008 -83.00805664 122.38598633 C-87.17424563 112.51626924 -88.04048298 103.24588079 -88.00732422 92.62402344 C-88.00417176 90.51745414 -88.02766539 88.41230413 -88.05297852 86.3059082 C-88.10813869 74.89454312 -86.18285798 64.67299348 -81.44165039 54.25317383 C-81.13646484 53.57544922 -80.8312793 52.89772461 -80.5168457 52.19946289 C-70.57375694 30.64758807 -54.09946356 15.93259899 -32.69165039 6.31567383 C-31.72485352 5.88125977 -30.75805664 5.4468457 -29.76196289 4.99926758 C-19.8922458 0.83307859 -10.62185735 -0.03315876 0 0 Z " fill="#010101" transform="translate(87.691650390625,-0.315673828125)"/>
<path d="M0 0 C-0.03758423 0.93791382 -0.03758423 0.93791382 -0.07592773 1.89477539 C-0.80751173 20.2606857 -1.42669988 38.62858835 -2 57 C0.99901112 49.85129978 3.95242718 42.68485457 6.8828125 35.5078125 C7.58202187 33.79687116 8.28124076 32.08593372 8.98046875 30.375 C10.05892476 27.73581546 11.13667217 25.09635157 12.21240234 22.45605469 C13.26706032 19.86825857 14.32468174 17.28169022 15.3828125 14.6953125 C15.70162384 13.91084747 16.02043518 13.12638245 16.34890747 12.31814575 C16.65287445 11.57652191 16.95684143 10.83489807 17.27001953 10.07080078 C17.53251495 9.4274881 17.79501038 8.78417542 18.06546021 8.12136841 C19.27816931 5.36856665 20.65474308 2.69051384 22 0 C27.28 0 32.56 0 38 0 C37.24090727 11.9095494 35.3829314 23.64214276 33.625 35.4375 C33.16424906 38.5526721 32.70456085 41.66799956 32.24505615 44.78335571 C31.94247041 46.83229983 31.63897149 48.8811093 31.33453369 50.92977905 C30.58256146 55.99884572 29.84584344 61.069357 29.13964844 66.14501953 C29.00392426 67.11649429 28.86820007 68.08796906 28.72836304 69.08888245 C28.47256079 70.92792737 28.21967131 72.76738052 27.97012329 74.60728455 C27.1104336 80.7791328 27.1104336 80.7791328 26 83 C20.72 83 15.44 83 10 83 C10.52820861 78.44612379 11.05964094 73.89285465 11.59912109 69.34033203 C11.78132617 67.79465248 11.96170044 66.24875588 12.14013672 64.70263672 C12.39838926 62.46781447 12.6634299 60.233881 12.9296875 58 C13.04544632 56.97918335 13.04544632 56.97918335 13.1635437 55.93774414 C13.58172675 52.48437515 14.17456498 49.16853113 15.06689453 45.8125 C15.84122117 42.64874156 16.20102485 40.2163976 16 37 C15.50072998 38.21582764 15.00145996 39.43165527 14.48706055 40.68432617 C12.62928978 45.2053666 10.76624151 49.72421645 8.90161133 54.24243164 C8.09613811 56.19626703 7.29208711 58.15068938 6.48950195 60.10571289 C5.33400103 62.9196975 4.17336047 65.73151451 3.01171875 68.54296875 C2.65534836 69.41398727 2.29897797 70.2850058 1.93180847 71.18241882 C-1.72525901 80.00422042 -1.72525901 80.00422042 -4 83 C-6.78599571 83.38060051 -8.93372751 83.47962905 -11.6875 83.3125 C-12.38939453 83.28994141 -13.09128906 83.26738281 -13.81445312 83.24414062 C-15.5438833 83.18531647 -17.27221438 83.09563389 -19 83 C-19.18895205 67.31697995 -18.60528268 51.66973829 -18 36 C-20.88992406 43.6468781 -23.76846333 51.29475325 -26.5 59 C-28.37773629 64.28570573 -30.29434888 69.55522206 -32.25 74.8125 C-32.63768555 75.8634082 -32.63768555 75.8634082 -33.03320312 76.93554688 C-34.88291824 81.88291824 -34.88291824 81.88291824 -36 83 C-37.51928038 83.07179964 -39.04167482 83.08392007 -40.5625 83.0625 C-41.80193359 83.04896484 -41.80193359 83.04896484 -43.06640625 83.03515625 C-44.02353516 83.01775391 -44.02353516 83.01775391 -45 83 C-43.33809256 78.33162684 -41.67020718 73.66540875 -40 69 C-39.49339844 67.58485107 -39.49339844 67.58485107 -38.9765625 66.14111328 C-34.40905228 53.39217185 -29.81649151 40.65722516 -25 28 C-24.6601709 27.10603516 -24.3203418 26.21207031 -23.97021484 25.29101562 C-21.65121066 19.1923292 -19.32756939 13.09542235 -17 7 C-18.27832308 7.59918441 -19.55221833 8.20782022 -20.82421875 8.8203125 C-21.53408936 9.15820801 -22.24395996 9.49610352 -22.9753418 9.84423828 C-28.01408461 12.72056874 -30.8324104 17.75344789 -33 23 C-33.33836399 25.8071423 -33.28700902 28.55302625 -33.1875 31.375 C-33.17396484 32.11105469 -33.16042969 32.84710938 -33.14648438 33.60546875 C-33.11144869 35.40396743 -33.05765288 37.20208422 -33 39 C-39.703125 38.1875 -39.703125 38.1875 -42.375 36.5 C-44.82656368 32.72836357 -45.38550235 29.47182728 -45 25 C-42.05998045 15.17941113 -34.74343659 7.90819229 -26.02856445 2.88354492 C-17.43581749 -1.68706517 -9.35881275 -2.44903511 0 0 Z " fill="#F8F8F8" transform="translate(127,49)"/>
<path d="M0 0 C1.32102974 0.00022659 1.32102974 0.00022659 2.66874695 0.00045776 C3.61570938 0.01078033 4.56267181 0.02110291 5.53833008 0.03173828 C6.51071121 0.03456818 7.48309235 0.03739807 8.48493958 0.04031372 C11.59270499 0.05151479 14.70018292 0.07661931 17.80786133 0.10205078 C19.91397696 0.11208067 22.02009711 0.12120651 24.1262207 0.12939453 C29.29104513 0.1514539 34.45565447 0.18598332 39.62036133 0.22705078 C38.20852332 4.82371607 36.34491213 9.05362417 34.18041992 13.33398438 C33.8387529 14.01761047 33.49708588 14.70123657 33.14506531 15.40557861 C32.02342839 17.64746764 30.89616398 19.88647509 29.76879883 22.12548828 C28.98659893 23.68615493 28.20475388 25.24699948 27.42324829 26.80801392 C25.37182347 30.90325089 23.31560388 34.99606183 21.25836182 39.08837891 C19.15736585 43.26986144 17.06093368 47.45363053 14.96411133 51.63720703 C10.85397973 59.83606205 6.73835772 68.03214314 2.62036133 76.22705078 C9.55036133 76.22705078 16.48036133 76.22705078 23.62036133 76.22705078 C23.29036133 75.56705078 22.96036133 74.90705078 22.62036133 74.22705078 C22.37036133 70.72705078 22.37036133 70.72705078 22.62036133 67.22705078 C26.08960013 64.91422491 27.54241708 64.80226492 31.62036133 65.22705078 C33.49536133 66.35205078 33.49536133 66.35205078 34.62036133 68.22705078 C35.23531817 72.18034479 34.7994797 73.91204952 32.80786133 77.41455078 C28.52036133 82.92705078 28.52036133 82.92705078 24.62036133 84.22705078 C23.13191417 84.31355663 21.63987875 84.34475251 20.14892578 84.34057617 C18.79786491 84.34046288 18.79786491 84.34046288 17.41950989 84.34034729 C16.45067368 84.335186 15.48183746 84.33002472 14.48364258 84.32470703 C12.99177681 84.32258461 12.99177681 84.32258461 11.46977234 84.32041931 C8.29077151 84.31481839 5.1118409 84.30226574 1.93286133 84.28955078 C-0.22143453 84.2845359 -2.37573149 84.27997297 -4.5300293 84.27587891 C-9.81325642 84.26484866 -15.09644253 84.24810964 -20.37963867 84.22705078 C-13.3117919 69.05632667 -5.86855918 54.08051575 1.63793945 39.12322998 C3.18893058 36.03164118 4.73754371 32.93886167 6.28637695 29.84619141 C8.99421397 24.43996196 11.70403189 19.03472869 14.41539001 13.63026428 C15.48520574 11.49660719 16.55293468 9.36190408 17.62036133 7.22705078 C11.35036133 7.22705078 5.08036133 7.22705078 -1.37963867 7.22705078 C-0.38963867 8.71205078 -0.38963867 8.71205078 0.62036133 10.22705078 C0.43286133 13.28955078 0.43286133 13.28955078 -0.37963867 16.22705078 C-3.85006571 18.5406688 -5.29798041 18.73725806 -9.37963867 18.22705078 C-11.31713867 16.66455078 -11.31713867 16.66455078 -12.37963867 14.22705078 C-12.28319965 8.92290484 -11.05884111 6.01446506 -7.37963867 2.22705078 C-4.24433638 0.13684925 -3.56132097 -0.02040872 0 0 Z " fill="#F9F9F9" transform="translate(35.379638671875,47.77294921875)"/>
<path d="M0 0 C0.33 0 0.66 0 1 0 C1.28571429 8.57142857 1.28571429 8.57142857 -1 12 C-2.1875 10.5 -2.1875 10.5 -3 8 C-2.27101296 5.21175762 -1.1843275 2.62334908 0 0 Z " fill="#4F4F4F" transform="translate(143,83)"/>
</svg>
